<svg width="434" height="301" viewBox="0 0 434 301" fill="none" xmlns="http://www.w3.org/2000/svg">
    <path d="M308.72 60.4109C308.72 92.1419 283.485 118.381 252.096 120.212C250.865 120.212 249.634 120.212 248.403 120.212C237.94 120.212 227.477 117.161 218.86 112.279C200.396 101.905 188.086 82.3785 188.086 59.8007C188.086 44.5454 193.625 30.5106 203.473 20.137C214.552 7.93274 230.554 0 248.403 0C271.791 0 292.102 13.4246 301.95 32.9514C306.258 41.4944 308.72 50.6475 308.72 60.4109Z" fill="url(#paint0_linear_907_367062)"/>
    <path opacity="0.1" d="M308.192 60.4109C308.192 92.1419 282.957 118.381 251.567 120.212C239.873 118.381 228.795 115.33 218.332 112.889C199.867 102.515 187.558 82.9887 187.558 60.4109C187.558 45.1557 193.097 31.1208 202.945 20.7472C223.255 20.137 246.644 21.9676 270.647 26.2391C281.726 28.0698 292.189 30.5106 302.037 32.9514C305.73 41.4944 308.192 50.6476 308.192 60.4109Z" fill="black"/>
    <path d="M381.784 100.796C386.429 74.9166 329.155 43.1677 253.858 29.8828C178.562 16.5978 113.756 26.8076 109.111 52.6869C104.466 78.5663 161.74 110.315 237.037 123.6C312.333 136.885 377.139 126.675 381.784 100.796Z" fill="url(#paint1_linear_907_367062)"/>
    <path d="M234.663 44.6597C235.005 40.2917 228.14 36.2001 219.329 35.5209C210.517 34.8416 203.097 37.832 202.754 42.1999C202.411 46.5679 209.277 50.6595 218.088 51.3387C226.9 52.018 234.32 49.0276 234.663 44.6597Z" fill="white"/>
    <path d="M157.219 55.8784C165.691 53.3847 171.54 47.9585 170.282 43.7588C169.025 39.559 161.137 38.176 152.665 40.6697C144.193 43.1635 138.345 48.5896 139.602 52.7894C140.86 56.9891 148.747 58.3721 157.219 55.8784Z" fill="white"/>
    <path d="M296.908 60.7143C297.682 56.4011 291.256 51.66 282.555 50.1249C273.854 48.5897 266.173 50.8418 265.399 55.1551C264.625 59.4683 271.051 64.2093 279.751 65.7445C288.452 67.2796 296.134 65.0276 296.908 60.7143Z" fill="white"/>
    <path d="M343.632 92.6206C345.657 88.7266 340.931 82.3146 333.075 78.2988C325.22 74.2831 317.211 74.1843 315.186 78.0783C313.16 81.9722 317.886 88.3843 325.742 92.4001C333.597 96.4158 341.606 96.5145 343.632 92.6206Z" fill="white"/>
    <path d="M237.773 82.2645L179.918 81.6543L97.5244 234.905L328.782 259.226L303.013 103.012L237.773 82.2645Z" fill="url(#paint2_linear_907_367062)"/>
    <path opacity="0.5" d="M359.011 300H62.9658C70.9671 292.829 82.6612 285.658 96.2017 280.28C103.587 277.591 112.204 274.006 120.821 272.213C146.671 265.042 178.06 260.56 211.296 260.56C251.303 260.56 288.231 266.835 316.543 276.695C326.391 280.28 335.008 283.866 342.393 288.347C349.164 291.933 354.703 295.518 359.011 300Z" fill="url(#paint3_linear_907_367062)"/>
    <path opacity="0.3" d="M124.92 276.549C125.308 280.19 118.963 284.548 111.619 285.33C104.275 286.112 97.8315 283.73 96.8317 280.155C103.982 277.552 112.292 274.212 120.731 272.086C123.308 273.039 124.726 274.729 124.92 276.549Z" fill="url(#paint4_linear_907_367062)"/>
    <path opacity="0.3" d="M176.829 273.984C186.687 273.984 194.678 272.072 194.678 269.713C194.678 267.354 186.687 265.441 176.829 265.441C166.972 265.441 158.98 267.354 158.98 269.713C158.98 272.072 166.972 273.984 176.829 273.984Z" fill="url(#paint5_linear_907_367062)"/>
    <path opacity="0.3" d="M273.039 273.634C273.242 270.608 265.432 267.63 255.596 266.984C245.76 266.338 237.622 268.267 237.42 271.294C237.218 274.32 245.027 277.297 254.863 277.944C264.699 278.59 272.837 276.66 273.039 273.634Z" fill="url(#paint6_linear_907_367062)"/>
    <path opacity="0.3" d="M340.802 287.384C338.356 287.102 335.419 287.197 331.821 286.168C322.108 284.433 314.509 280.486 314.858 277.455C314.928 276.848 314.928 276.848 315.609 276.313C325.113 279.866 333.751 283.302 340.802 287.384Z" fill="url(#paint7_linear_907_367062)"/>
    <path d="M302.646 104.588C304.73 92.9752 278.748 78.6792 244.614 72.6567C210.479 66.6342 181.118 71.1658 179.034 82.7783C176.949 94.3909 202.931 108.687 237.066 114.709C271.2 120.732 300.561 116.2 302.646 104.588Z" fill="url(#paint8_linear_907_367062)"/>
    <path d="M81.6275 160.826C81.6275 160.826 60.367 166.224 66.8095 170.542C73.2521 174.645 88.4996 181.77 102.888 177.02C117.276 172.27 102.888 165.576 103.103 165.576C103.318 165.576 81.6275 160.826 81.6275 160.826Z" fill="#CED7E2"/>
    <path d="M55.6416 159.098C63.3727 161.474 87.2103 157.587 102.458 147.655C114.484 162.553 118.994 166.44 123.289 166.872C116.631 173.565 94.5119 184.361 82.0562 170.326C67.453 179.611 55.6416 159.098 55.6416 159.098Z" fill="#E9EEF8"/>
    <path d="M311.004 178.534C319.165 178.966 341.284 169.034 353.31 155.647C368.772 167.09 373.926 169.681 378.436 169.034C373.497 177.239 358.464 195.16 337.204 196.455C321.742 187.387 311.004 178.534 311.004 178.534Z" fill="#E9EEF8"/>
    <path d="M240.28 178.801C238.666 170.79 223.537 151.842 207.576 143.529C214.807 125.704 216.033 120.067 214.282 115.861C223.459 118.601 244.56 128.695 251.11 148.963C246.179 166.197 240.28 178.801 240.28 178.801Z" fill="white"/>
    <path d="M432.133 300H413.444H26.0111H1.86719" stroke="#D5DAE8" stroke-width="2" stroke-miterlimit="10" stroke-linecap="round" stroke-linejoin="round"/>
    <path d="M168.827 250.972V263.176H161.442V274.77H147.286V263.176H116.512V249.141L144.824 210.088H161.442V250.972H168.827ZM147.901 225.953L130.052 250.972H147.901V225.953Z" fill="url(#paint9_linear_907_367062)"/>
    <path d="M213.142 275.991C198.37 275.991 185.445 263.176 185.445 242.429C185.445 221.682 198.37 208.868 213.142 208.868C227.913 208.868 240.838 221.682 240.838 242.429C241.454 262.566 228.529 275.991 213.142 275.991ZM213.142 263.176C219.912 263.176 227.298 256.464 227.298 241.819C227.298 227.784 220.528 220.462 213.142 220.462C206.372 220.462 198.986 227.174 198.986 241.819C199.601 256.464 206.372 263.176 213.142 263.176Z" fill="url(#paint10_linear_907_367062)"/>
    <path d="M311.003 250.972V263.176H303.617V274.77H289.461V263.176H258.688V249.141L287 210.088H303.002V250.972H311.003ZM289.461 225.953L271.613 250.972H289.461V225.953Z" fill="url(#paint11_linear_907_367062)"/>
    <path d="M163.288 250.972V263.176H155.903V274.77H141.747V263.176H110.973V249.141L139.285 210.088H155.287V250.972H163.288ZM142.362 225.953L124.513 250.972H142.362V225.953Z" fill="url(#paint12_linear_907_367062)"/>
    <path d="M207.603 275.991C192.831 275.991 179.906 263.176 179.906 242.429C179.906 221.682 192.831 208.868 207.603 208.868C222.374 208.868 235.299 221.682 235.299 242.429C235.915 262.566 222.99 275.991 207.603 275.991ZM207.603 263.176C214.373 263.176 221.759 256.464 221.759 241.819C221.759 227.784 214.989 220.462 207.603 220.462C200.833 220.462 193.447 227.174 193.447 241.819C194.062 256.464 200.833 263.176 207.603 263.176Z" fill="url(#paint13_linear_907_367062)"/>
    <path d="M305.464 250.972V263.176H298.078V274.77H283.922V263.176H253.148V249.141L281.46 210.088H297.463V250.972H305.464ZM283.922 225.953L266.074 250.972H283.922V225.953Z" fill="url(#paint14_linear_907_367062)"/>
    <defs>
        <linearGradient id="paint0_linear_907_367062" x1="248.412" y1="4.17601" x2="248.412" y2="71.6495" gradientUnits="userSpaceOnUse">
            <stop stop-color="#B0BACC"/>
            <stop offset="1" stop-color="#969EAE"/>
        </linearGradient>
        <linearGradient id="paint1_linear_907_367062" x1="118.585" y1="54.3508" x2="271.552" y2="81.8076" gradientUnits="userSpaceOnUse">
            <stop stop-color="#E3E7EE"/>
            <stop offset="1" stop-color="#D1D6DF"/>
        </linearGradient>
        <linearGradient id="paint2_linear_907_367062" x1="213.169" y1="87.8229" x2="213.169" y2="187.492" gradientUnits="userSpaceOnUse">
            <stop stop-color="#BDC4D1" stop-opacity="0.53"/>
            <stop offset="1" stop-color="#5D7CB8" stop-opacity="0"/>
        </linearGradient>
        <linearGradient id="paint3_linear_907_367062" x1="210.989" y1="260.56" x2="210.989" y2="300" gradientUnits="userSpaceOnUse">
            <stop stop-color="#B6BFD7"/>
            <stop offset="1" stop-color="#838DA7" stop-opacity="0"/>
        </linearGradient>
        <linearGradient id="paint4_linear_907_367062" x1="110.374" y1="273.616" x2="111.099" y2="280.427" gradientUnits="userSpaceOnUse">
            <stop stop-color="#B0BACC"/>
            <stop offset="1" stop-color="#969EAE"/>
        </linearGradient>
        <linearGradient id="paint5_linear_907_367062" x1="176.832" y1="265.738" x2="176.832" y2="270.533" gradientUnits="userSpaceOnUse">
            <stop stop-color="#B0BACC"/>
            <stop offset="1" stop-color="#969EAE"/>
        </linearGradient>
        <linearGradient id="paint6_linear_907_367062" x1="238.657" y1="271.374" x2="258.649" y2="272.71" gradientUnits="userSpaceOnUse">
            <stop stop-color="#B0BACC"/>
            <stop offset="1" stop-color="#969EAE"/>
        </linearGradient>
        <linearGradient id="paint7_linear_907_367062" x1="328.419" y1="278.077" x2="327.891" y2="282.651" gradientUnits="userSpaceOnUse">
            <stop stop-color="#B0BACC"/>
            <stop offset="1" stop-color="#969EAE"/>
        </linearGradient>
        <linearGradient id="paint8_linear_907_367062" x1="240.84" y1="109.911" x2="249.949" y2="78.467" gradientUnits="userSpaceOnUse">
            <stop stop-color="#B0BACC"/>
            <stop offset="1" stop-color="#969EAE"/>
        </linearGradient>
        <linearGradient id="paint9_linear_907_367062" x1="142.674" y1="212.335" x2="142.674" y2="248.64" gradientUnits="userSpaceOnUse">
            <stop stop-color="#D6DCE6"/>
            <stop offset="1" stop-color="#C4CBDA"/>
        </linearGradient>
        <linearGradient id="paint10_linear_907_367062" x1="213.157" y1="211.199" x2="213.157" y2="248.875" gradientUnits="userSpaceOnUse">
            <stop stop-color="#D6DCE6"/>
            <stop offset="1" stop-color="#C4CBDA"/>
        </linearGradient>
        <linearGradient id="paint11_linear_907_367062" x1="284.849" y1="212.335" x2="284.849" y2="248.64" gradientUnits="userSpaceOnUse">
            <stop stop-color="#D6DCE6"/>
            <stop offset="1" stop-color="#C4CBDA"/>
        </linearGradient>
        <linearGradient id="paint12_linear_907_367062" x1="137.135" y1="212.335" x2="137.135" y2="248.64" gradientUnits="userSpaceOnUse">
            <stop stop-color="#EAEEF5"/>
            <stop offset="1" stop-color="#D4DAE4"/>
        </linearGradient>
        <linearGradient id="paint13_linear_907_367062" x1="207.618" y1="211.199" x2="207.618" y2="248.875" gradientUnits="userSpaceOnUse">
            <stop stop-color="#EAEEF5"/>
            <stop offset="1" stop-color="#D4DAE4"/>
        </linearGradient>
        <linearGradient id="paint14_linear_907_367062" x1="279.31" y1="212.335" x2="279.31" y2="248.64" gradientUnits="userSpaceOnUse">
            <stop stop-color="#EAEEF5"/>
            <stop offset="1" stop-color="#D4DAE4"/>
        </linearGradient>
    </defs>
</svg>
