<svg width="386" height="300" viewBox="0 0 386 300" fill="none" xmlns="http://www.w3.org/2000/svg">
    <path d="M185.11 300C264.58 300 329.008 235.572 329.008 155.818C329.008 76.0643 264.296 11.6367 185.11 11.6367C105.64 11.6367 41.2119 76.0643 41.2119 155.818C41.2119 235.572 105.64 300 185.11 300Z" fill="#EAEEF9"/>
    <path d="M319.642 61.3056C326.068 61.3056 331.278 56.0957 331.278 49.6689C331.278 43.2422 326.068 38.0322 319.642 38.0322C313.215 38.0322 308.005 43.2422 308.005 49.6689C308.005 56.0957 313.215 61.3056 319.642 61.3056Z" fill="#EAEEF9"/>
    <path d="M336.672 15.894C341.061 15.894 344.619 12.336 344.619 7.94702C344.619 3.558 341.061 0 336.672 0C332.283 0 328.725 3.558 328.725 7.94702C328.725 12.336 332.283 15.894 336.672 15.894Z" fill="#EAEEF9"/>
    <path d="M48.8757 61.0217C53.2647 61.0217 56.8228 57.4637 56.8228 53.0747C56.8228 48.6857 53.2647 45.1277 48.8757 45.1277C44.4867 45.1277 40.9287 48.6857 40.9287 53.0747C40.9287 57.4637 44.4867 61.0217 48.8757 61.0217Z" fill="#EAEEF9"/>
    <path d="M15.4355 232.814C23.5865 232.814 30.1943 226.206 30.1943 218.055C30.1943 209.904 23.5865 203.296 15.4355 203.296C7.28448 203.296 0.676758 209.904 0.676758 218.055C0.676758 226.206 7.28448 232.814 15.4355 232.814Z" fill="#EAEEF9"/>
    <path d="M385.317 262.017C385.111 269.024 378.929 274.381 371.922 274.381H281.251C277.953 274.381 275.274 276.854 275.068 279.945C274.862 283.449 277.541 286.127 281.044 286.127H304.125C305.567 286.127 306.803 287.364 306.803 288.806C306.803 290.249 305.567 291.485 304.125 291.485H168.117C161.111 291.485 155.134 286.128 154.722 279.121C154.516 271.909 160.286 265.932 167.499 265.932H187.488C190.373 265.52 192.846 263.047 192.846 259.956C192.846 256.659 190.167 253.98 186.87 253.98H125.46C115.157 253.98 106.295 246.356 105.677 236.052C104.853 224.924 113.714 215.651 124.842 215.651H305.773C316.283 215.651 324.938 224.306 324.938 234.816C324.938 239.349 323.289 243.471 320.816 246.768C322.053 247.386 323.083 248.004 324.113 248.828H373.159C379.753 249.035 385.523 254.805 385.317 262.017Z" fill="url(#paint0_linear_1234_231879)"/>
    <g filter="url(#filter0_d_1234_231879)">
        <path d="M250.442 83.1941L196.245 93.7038L105.367 111.426L65.389 119.257C58.1765 120.699 53.2308 127.293 53.849 134.712L61.6797 222.293C62.2979 229.505 68.4801 235.275 75.6926 235.275L264.248 237.542L250.442 83.1941Z" fill="url(#paint1_linear_1234_231879)"/>
    </g>
    <g filter="url(#filter1_d_1234_231879)">
        <path d="M272.903 89.3767L285.473 227.651C285.473 228.681 284.855 229.712 283.825 229.918L268.781 233.215L255.387 86.9038L270.842 87.316C271.872 87.316 272.697 88.3463 272.903 89.3767Z" fill="url(#paint2_linear_1234_231879)"/>
    </g>
    <g filter="url(#filter2_d_1234_231879)">
        <path d="M238.488 77.8364L253.738 245.167C253.944 246.403 255.18 247.228 256.21 246.609L271.048 240.839C272.902 240.015 274.139 237.954 273.933 235.894L260.126 82.7821C259.92 80.7214 258.477 79.0728 256.417 78.4546L240.755 75.7757C239.519 75.5696 238.488 76.5999 238.488 77.8364Z" fill="url(#paint3_linear_1234_231879)"/>
    </g>
    <path d="M198.304 93.4978L107.426 111.22C106.396 116.166 105.984 121.111 106.602 126.263C109.075 154.083 133.597 174.484 161.211 172.011C188.825 169.538 209.226 145.016 206.753 117.402C205.929 108.541 203.044 100.504 198.304 93.4978Z" fill="url(#paint4_linear_1234_231879)"/>
    <defs>
        <filter id="filter0_d_1234_231879" x="31.7969" y="72.1941" width="254.451" height="198.348" filterUnits="userSpaceOnUse" color-interpolation-filters="sRGB">
            <feFlood flood-opacity="0" result="BackgroundImageFix"/>
            <feColorMatrix in="SourceAlpha" type="matrix" values="0 0 0 0 0 0 0 0 0 0 0 0 0 0 0 0 0 0 127 0" result="hardAlpha"/>
            <feOffset dy="11"/>
            <feGaussianBlur stdDeviation="11"/>
            <feColorMatrix type="matrix" values="0 0 0 0 0.397708 0 0 0 0 0.47749 0 0 0 0 0.575 0 0 0 0.27 0"/>
            <feBlend mode="normal" in2="BackgroundImageFix" result="effect1_dropShadow_1234_231879"/>
            <feBlend mode="normal" in="SourceGraphic" in2="effect1_dropShadow_1234_231879" result="shape"/>
        </filter>
        <filter id="filter1_d_1234_231879" x="233.387" y="75.9038" width="74.0869" height="190.311" filterUnits="userSpaceOnUse" color-interpolation-filters="sRGB">
            <feFlood flood-opacity="0" result="BackgroundImageFix"/>
            <feColorMatrix in="SourceAlpha" type="matrix" values="0 0 0 0 0 0 0 0 0 0 0 0 0 0 0 0 0 0 127 0" result="hardAlpha"/>
            <feOffset dy="11"/>
            <feGaussianBlur stdDeviation="11"/>
            <feColorMatrix type="matrix" values="0 0 0 0 0.397708 0 0 0 0 0.47749 0 0 0 0 0.575 0 0 0 0.27 0"/>
            <feBlend mode="normal" in2="BackgroundImageFix" result="effect1_dropShadow_1234_231879"/>
            <feBlend mode="normal" in="SourceGraphic" in2="effect1_dropShadow_1234_231879" result="shape"/>
        </filter>
        <filter id="filter2_d_1234_231879" x="216.488" y="64.7493" width="79.4668" height="215.07" filterUnits="userSpaceOnUse" color-interpolation-filters="sRGB">
            <feFlood flood-opacity="0" result="BackgroundImageFix"/>
            <feColorMatrix in="SourceAlpha" type="matrix" values="0 0 0 0 0 0 0 0 0 0 0 0 0 0 0 0 0 0 127 0" result="hardAlpha"/>
            <feOffset dy="11"/>
            <feGaussianBlur stdDeviation="11"/>
            <feColorMatrix type="matrix" values="0 0 0 0 0.397708 0 0 0 0 0.47749 0 0 0 0 0.575 0 0 0 0.27 0"/>
            <feBlend mode="normal" in2="BackgroundImageFix" result="effect1_dropShadow_1234_231879"/>
            <feBlend mode="normal" in="SourceGraphic" in2="effect1_dropShadow_1234_231879" result="shape"/>
        </filter>
        <linearGradient id="paint0_linear_1234_231879" x1="105.496" y1="253.576" x2="385.373" y2="253.576" gradientUnits="userSpaceOnUse">
            <stop stop-color="#B0BACC"/>
            <stop offset="1" stop-color="#969EAE"/>
        </linearGradient>
        <linearGradient id="paint1_linear_1234_231879" x1="158.954" y1="79.6239" x2="158.954" y2="239.206" gradientUnits="userSpaceOnUse">
            <stop stop-color="#FDFEFF"/>
            <stop offset="0.9964" stop-color="#ECF0F5"/>
        </linearGradient>
        <linearGradient id="paint2_linear_1234_231879" x1="270.42" y1="83.5195" x2="270.42" y2="234.792" gradientUnits="userSpaceOnUse">
            <stop stop-color="#FDFEFF"/>
            <stop offset="0.9964" stop-color="#ECF0F5"/>
        </linearGradient>
        <linearGradient id="paint3_linear_1234_231879" x1="256.21" y1="71.7922" x2="256.21" y2="248.664" gradientUnits="userSpaceOnUse">
            <stop stop-color="#FDFEFF"/>
            <stop offset="0.9964" stop-color="#ECF0F5"/>
        </linearGradient>
        <linearGradient id="paint4_linear_1234_231879" x1="106.265" y1="132.865" x2="206.974" y2="132.865" gradientUnits="userSpaceOnUse">
            <stop stop-color="#B0BACC"/>
            <stop offset="1" stop-color="#969EAE"/>
        </linearGradient>
    </defs>
</svg>