<svg width="208" height="32" viewBox="0 0 208 32" fill="none" xmlns="http://www.w3.org/2000/svg">
    <g clip-path="url(#clip0_29_94302)">
        <path d="M41.7487 24.5854H46.0095C45.3832 26.9714 44.1907 28.7902 42.4299 30.0387C40.6682 31.3462 38.4533 31.998 35.7841 31.998C32.5458 31.998 30.0182 30.947 28.2004 28.8451C26.3816 26.8003 25.4733 23.8745 25.4733 20.0689C25.4733 16.2633 26.3531 13.5932 28.1149 11.5483C29.9327 9.44747 32.4602 8.39551 35.6986 8.39551C39.107 8.39551 41.7487 9.41794 43.6235 11.4628C45.4402 13.5647 46.3496 16.4904 46.3496 20.239V21.1769C46.3496 21.4621 46.3201 21.6606 46.2651 21.7737H31.5233C31.5793 23.5354 32.006 24.841 32.8024 25.6933C33.5397 26.6027 34.6477 27.0569 36.1253 27.0569C37.0907 27.0569 37.9145 26.8583 38.5968 26.4602C38.7669 26.4041 38.9227 26.3043 39.0653 26.1618C39.2068 26.0202 39.3637 25.8634 39.5337 25.6933C39.5897 25.5233 39.8026 25.2972 40.1733 25.0121C40.5419 24.7289 41.0684 24.5864 41.7497 24.5864L41.7487 24.5854ZM31.5233 17.9396H40.215C40.101 16.4059 39.7038 15.2704 39.0225 14.5311C38.2832 13.7368 37.2333 13.3386 35.8697 13.3386C34.6202 13.3386 33.5977 13.7368 32.8024 14.5311C32.006 15.3275 31.5804 16.4629 31.5233 17.9396Z" fill="#F0003A"/>
        <path d="M62.6454 30.6354C61.4529 31.2607 60.1881 31.6436 58.854 31.7851C57.519 31.9267 56.3397 31.998 55.3173 31.998C53.2724 31.998 51.4832 31.444 49.9495 30.336C48.4159 29.2281 47.649 27.396 47.649 24.8399C47.649 22.4539 48.3446 20.7502 49.7367 19.7278C51.1278 18.7054 52.9028 18.0241 55.0617 17.6829C55.3458 17.6829 55.6859 17.6402 56.0841 17.5546C56.4802 17.4691 56.9365 17.3988 57.4467 17.3418C59.9457 17.0006 61.1963 16.2633 61.1963 15.1258C61.1963 14.2735 60.7553 13.7195 59.8755 13.4649C58.9946 13.2093 58.184 13.081 57.4467 13.081C56.6513 13.081 55.9405 13.196 55.3163 13.4221C54.691 13.6492 54.2368 14.0759 53.9527 14.7002H48.2438C48.4698 12.9404 49.2662 11.4913 50.6298 10.3548C52.1634 9.04929 54.3498 8.39551 57.19 8.39551C60.3714 8.39551 62.7574 8.93626 64.3481 10.0147C65.9958 11.1512 66.8196 12.7408 66.8196 14.7867V22.5405C66.8196 24.8135 66.4072 26.5885 65.5844 27.8665C64.7595 29.1445 63.7798 30.0692 62.6444 30.6354H62.6454ZM61.2828 20.1555C60.4865 20.5537 59.3785 20.9223 57.9599 21.2635L56.0006 21.6891C54.9782 21.9743 54.2388 22.3429 53.7847 22.7971C53.3865 23.4224 53.1879 24.0477 53.1879 24.6719C53.1879 25.5243 53.4435 26.2056 53.9547 26.7168C54.4659 27.172 55.2032 27.3981 56.1707 27.3981C57.7603 27.3981 59.0109 26.9439 59.9203 26.0345C60.8276 25.1261 61.2838 23.8766 61.2838 22.2859V20.1555H61.2828Z" fill="#F0003A"/>
        <path d="M68.8014 0.158997H71.8687C72.663 0.158997 73.3453 0.428861 73.9135 0.968591C74.4808 1.50934 74.7659 2.17636 74.7659 2.97068V31.5723H68.8014V0.158997Z" fill="#F0003A"/>
        <path d="M76.1498 24.0751H81.9442C82.0002 25.2116 82.4259 26.064 83.2223 26.6312C84.0746 27.1994 85.2101 27.4836 86.6307 27.4836C87.6531 27.4836 88.533 27.285 89.2723 26.8868C89.9536 26.4907 90.2948 25.9499 90.2948 25.2676C90.2948 24.2452 89.1023 23.4784 86.7163 22.9671C85.6938 22.7971 84.927 22.626 84.4158 22.4559C81.4045 21.7186 79.3882 20.8367 78.3657 19.8143C77.2292 18.7919 76.662 17.4283 76.662 15.7246C76.662 13.5667 77.4848 11.7774 79.1336 10.3558C80.8373 9.05027 83.0532 8.39648 85.7794 8.39648C88.7326 8.39648 91.0901 9.05027 92.8519 10.3558C94.4996 11.7764 95.3784 13.6227 95.4935 15.8947H91.8294C90.75 15.8947 89.9261 15.413 89.3589 14.4465C89.1308 14.2205 88.9037 13.9924 88.6776 13.7653C87.9963 13.2541 87.0584 12.9984 85.8659 12.9984C84.6734 12.9984 83.8761 13.1685 83.3088 13.5097C82.7976 13.8508 82.542 14.362 82.542 15.0433C82.542 15.9527 84.0186 16.7195 86.9729 17.3438C87.313 17.4589 87.6124 17.5434 87.867 17.5994C88.1226 17.6564 88.364 17.6849 88.5911 17.6849C91.4883 18.4232 93.5036 19.2756 94.6411 20.241C95.7196 21.2634 96.2603 22.627 96.2603 24.3307C96.2603 26.8308 95.3509 28.7616 93.5331 30.1252C91.8294 31.3757 89.2734 32 85.8649 32C82.4565 32 80.211 31.3472 78.6223 30.0407C76.9736 28.7351 76.1508 26.8318 76.1508 24.3317V24.0761L76.1498 24.0751Z" fill="#F0003A"/>
        <path d="M104.715 0.0744774C102.385 0.0744774 100.711 0.558197 99.6882 1.52258C98.6077 2.54501 98.069 4.07866 98.069 6.12352V31.5723H103.863V18.0913H110.538C111.276 18.0913 111.93 17.8224 112.497 17.2817C113.064 16.743 113.349 16.0464 113.349 15.194V13.2917H103.863V6.63372C103.863 5.95244 104.005 5.49825 104.289 5.27014C104.63 5.04406 114.41 4.92899 115.206 4.92899H116.74V3.61022C116.739 1.60507 115.102 -0.0171748 113.095 0.000137284L104.715 0.0734591V0.0744774Z" fill="#F0003A"/>
        <path d="M117.814 29.5284C116.621 28.506 115.769 27.1292 115.258 25.3959C114.747 23.6637 114.491 21.8592 114.491 19.9854C114.491 18.4517 114.704 16.9181 115.13 15.3845C115.556 13.8508 116.223 12.5728 117.133 11.5503C118.609 9.84662 120.512 8.83845 122.842 8.52581C125.17 8.21419 127.272 8.3975 129.147 9.0798C131.305 9.93216 132.897 11.4098 133.919 13.5107C134.885 15.3855 135.367 17.5729 135.367 20.072C135.367 21.8907 135.168 23.4519 134.771 24.7584C134.372 26.066 133.861 27.173 133.237 28.0813C131.873 29.9561 130.14 31.1211 128.039 31.5753C126.164 32.0865 124.275 32.1293 122.373 31.7036C120.469 31.278 118.95 30.5529 117.815 29.5305L117.814 29.5284ZM121.904 14.5311C120.711 15.8386 120.17 17.7837 120.284 20.3683C120.397 22.9539 120.881 24.7564 121.733 25.7788C122.073 26.234 122.67 26.618 123.522 26.9296C124.374 27.2422 125.239 27.2707 126.121 27.0151C127 26.7595 127.782 26.12 128.464 25.0975C129.145 24.0751 129.515 22.4284 129.572 20.1555C129.572 18.1106 129.244 16.5769 128.591 15.5545C127.937 14.5321 127.186 13.8793 126.333 13.5952C125.481 13.3121 124.63 13.2968 123.777 13.5524C122.925 13.808 122.3 14.1359 121.903 14.5321L121.904 14.5311Z" fill="#F0003A"/>
        <path d="M137.112 31.5733V20.5812C137.112 18.3662 137.438 16.5057 138.091 15.0006C138.744 13.4954 139.638 12.2887 140.776 11.3793C141.854 10.5269 143.119 9.90265 144.568 9.50447C146.016 9.10833 147.507 8.90771 149.042 8.90771H149.894V14.9578H147.935C146.286 14.9578 145.066 15.356 144.271 16.1503C143.475 16.9466 143.078 18.1951 143.078 19.8999V31.5733H137.114H137.112Z" fill="#F0003A"/>
        <path d="M170.895 31.5733H165.016V17.0882C165.016 15.7246 164.603 14.7317 163.781 14.1064C162.956 13.4822 162.034 13.1695 161.011 13.1695C159.987 13.1695 159.079 13.4822 158.284 14.1064C157.488 14.7317 157.092 15.7256 157.092 17.0882V31.5733H151.127V18.2807C151.127 14.418 152.136 11.8345 154.152 10.5269C156.167 9.22034 158.397 8.51156 160.841 8.39648C162.147 8.39648 163.425 8.53905 164.676 8.82318C165.924 9.10832 167.062 9.67554 168.084 10.5269C168.936 9.7896 169.944 9.26311 171.109 8.95047C172.273 8.63885 173.48 8.45351 174.73 8.39648C177.229 8.39648 179.529 9.05027 181.632 10.3558C183.733 11.6634 184.785 14.305 184.785 18.2807V31.5733H181.803C180.951 31.5733 180.256 31.3044 179.716 30.7637C179.175 30.225 178.906 29.5284 178.906 28.6761V17.0871C178.906 15.7236 178.494 14.7307 177.671 14.1054C176.846 13.4811 175.924 13.1685 174.902 13.1685C173.88 13.1685 172.955 13.4811 172.132 14.1054C171.308 14.7307 170.897 15.7246 170.897 17.0871V31.5723L170.895 31.5733Z" fill="#F0003A"/>
        <path d="M202.568 24.5854H206.829C206.202 26.9714 205.01 28.7902 203.249 30.0387C201.487 31.3462 199.272 31.998 196.603 31.998C193.365 31.998 190.837 30.947 189.02 28.8451C187.201 26.8003 186.292 23.8745 186.292 20.0689C186.292 16.2633 187.172 13.5932 188.934 11.5483C190.752 9.44747 193.279 8.39551 196.518 8.39551C199.926 8.39551 202.568 9.41794 204.443 11.4628C206.259 13.5647 207.169 16.4904 207.169 20.239V21.1769C207.169 21.4621 207.139 21.6606 207.084 21.7737H192.342C192.398 23.5354 192.825 24.841 193.621 25.6933C194.359 26.6027 195.467 27.0569 196.944 27.0569C197.91 27.0569 198.734 26.8583 199.416 26.4602C199.586 26.4041 199.742 26.3043 199.884 26.1618C200.026 26.0202 200.183 25.8634 200.353 25.6933C200.409 25.5233 200.622 25.2972 200.992 25.0121C201.361 24.7289 201.888 24.5864 202.569 24.5864L202.568 24.5854ZM192.342 17.9396H201.034C200.92 16.4059 200.523 15.2704 199.842 14.5311C199.102 13.7368 198.052 13.3386 196.689 13.3386C195.439 13.3386 194.417 13.7368 193.621 14.5311C192.825 15.3275 192.399 16.4629 192.342 17.9396Z" fill="#F0003A"/>
        <path d="M24.2095 13.75V2.9493C24.2095 1.40852 22.96 0.158997 21.4192 0.158997H18.4996V9.58492C17.5657 8.99834 16.5637 8.53804 15.4913 8.22235C14.0035 7.78548 12.477 7.65004 10.9301 7.81297C7.4351 8.18162 4.61935 9.77331 2.47163 12.53C1.59177 13.6604 0.927798 14.9344 0.525546 16.3091C-0.15879 18.6452 -0.180176 20.9569 0.492959 23.235C0.780136 24.2075 1.19155 25.12 1.67935 26.0019C1.71804 26.0721 1.75063 26.1668 1.84534 26.1617C1.92783 26.1577 1.92579 26.0548 1.96652 25.9998C2.12335 25.7839 2.14677 25.5986 2.01948 25.3236C1.81988 24.8908 1.89727 24.4428 2.24861 24.0843C2.35859 23.9713 2.39831 23.8022 2.34841 23.6525C2.13863 23.0191 2.37692 22.4407 2.97164 22.1341C3.11116 22.0618 3.19263 21.9895 3.21096 21.8215C3.30465 20.9997 3.84539 20.5628 4.65702 20.6789C4.76293 20.6942 4.82302 20.685 4.86477 20.6606C4.86579 20.6759 4.86579 20.6921 4.86782 20.7074C4.93809 20.6697 5.01447 20.6443 5.09186 20.626C5.11019 20.6219 5.12852 20.6168 5.14991 20.6127C5.17741 20.5923 5.16926 20.6056 5.19064 20.5822C5.19574 20.5761 5.23443 20.5333 5.22018 20.5516C5.27415 20.4803 5.31794 20.4019 5.36275 20.3235C5.35867 20.2288 5.34951 20.1361 5.34951 20.0404C5.34951 16.2277 8.3832 13.138 12.1267 13.138C16.085 13.138 18.8957 16.4802 18.4354 20.3887C18.1075 23.18 16.6757 25.1108 14.0605 25.9937C12.7377 26.4408 10.9057 26.4764 10.2519 25.1678C10.2488 25.1617 10.2519 25.1536 10.2509 25.1464C10.203 24.1138 10.5248 23.1444 10.7611 22.1555C10.8822 21.6474 11.0971 21.1718 11.2988 20.6901C11.3548 20.5567 11.2845 20.5058 11.1704 20.4508C10.4423 20.0995 9.69688 20.3449 9.17853 21.1148C8.81803 21.6504 8.539 22.2227 8.41069 22.8612C8.40254 22.901 8.39236 22.9407 8.3781 22.9784C8.2447 23.3409 8.21313 23.3521 7.87198 23.1566C7.11127 22.7187 6.35259 22.2798 5.59188 21.8429C5.5878 21.8276 5.58169 21.8123 5.57762 21.7971C5.53078 21.7614 5.48393 21.7258 5.43607 21.6901C5.41061 21.6708 5.38515 21.6535 5.35765 21.6372C5.34543 21.6301 5.33321 21.6239 5.32099 21.6168C5.31794 21.6148 5.29859 21.6066 5.28942 21.6026C5.28331 21.6005 5.27619 21.5975 5.27415 21.5975C5.25786 21.5924 5.24156 21.5873 5.22527 21.5822C5.19879 21.5751 5.17231 21.57 5.13769 21.5628C5.12343 21.5628 5.11019 21.5598 5.09594 21.5588C5.06437 21.5567 5.03178 21.5557 5.00021 21.5557C4.99206 21.5557 4.98595 21.5516 4.97984 21.5557C4.72016 21.4956 4.49103 21.5496 4.29347 21.7288C3.9788 22.015 3.92177 22.401 4.12748 22.8419C4.1397 22.8674 4.1397 22.8989 4.14886 22.9448C3.85354 22.96 3.55109 22.9162 3.31381 23.1454C2.99201 23.455 2.98692 23.956 3.31992 24.3206C3.41463 24.4244 3.52359 24.4957 3.32807 24.6047C2.73029 24.9387 2.5979 25.5701 3.07755 26.0599C3.12745 26.1108 3.16717 26.1475 3.24354 26.2198C3.03885 26.3369 2.83111 26.4235 2.72724 26.6373C2.55208 26.9948 2.65188 27.3186 2.85657 27.6139C3.35353 28.3288 4.01037 28.8869 4.69063 29.4154C6.13263 30.5356 7.81393 31.3207 9.60319 31.6863C10.6674 31.9043 11.7417 32.0529 12.8243 31.9603C16.4883 31.6446 19.4976 30.0763 21.7634 27.1587C24.7828 23.2696 24.2075 18.3621 24.2075 13.748L24.2095 13.75Z" fill="#F0003A"/>
    </g>
    <defs>
        <clipPath id="clip0_29_94302">
            <rect width="208" height="32" fill="white"/>
        </clipPath>
    </defs>
</svg>