<svg width="24" height="24" viewBox="0 0 24 24" fill="none" xmlns="http://www.w3.org/2000/svg">
    <g clip-path="url(#clip0_4610_6213)">
        <path d="M11.9998 23.9999C18.6272 23.9999 23.9998 18.6273 23.9998 11.9999C23.9998 5.37246 18.6272 -0.00012207 11.9998 -0.00012207C5.3724 -0.00012207 -0.000183105 5.37246 -0.000183105 11.9999C-0.000183105 18.6273 5.3724 23.9999 11.9998 23.9999Z" fill="#F0F0F0"/>
        <path d="M11.4783 12H24C24 10.9169 23.8556 9.86762 23.5866 8.86951H11.4783V12Z" fill="#D80027"/>
        <path d="M11.4783 5.7391H22.2387C21.5041 4.54041 20.5649 3.48089 19.4698 2.60864H11.4783V5.7391Z" fill="#D80027"/>
        <path d="M12 23.9999C14.8241 23.9999 17.4199 23.0238 19.4698 21.3912H4.53015C6.57999 23.0238 9.17579 23.9999 12 23.9999Z" fill="#D80027"/>
        <path d="M1.76128 18.2608H22.2387C22.8285 17.2985 23.2858 16.2467 23.5866 15.1304H0.413391C0.714188 16.2467 1.17155 17.2985 1.76128 18.2608Z" fill="#D80027"/>
        <path d="M5.55844 1.87385H6.65199L5.6348 2.61283L6.02335 3.80857L5.00621 3.06958L3.98907 3.80857L4.32469 2.77558C3.4291 3.5216 2.64413 4.39563 1.99725 5.3695H2.34765L1.70016 5.83989C1.59929 6.00817 1.50254 6.17913 1.40982 6.35261L1.719 7.30422L1.14216 6.88511C0.99877 7.18891 0.867614 7.49955 0.749723 7.81666L1.09036 8.86516H2.34765L1.33046 9.60414L1.719 10.7999L0.701864 10.0609L0.0925825 10.5036C0.0315981 10.9938 -0.000183105 11.4931 -0.000183105 11.9999H11.9998C11.9998 5.3725 11.9998 4.59119 11.9998 -0.00012207C9.62925 -0.00012207 7.41943 0.687534 5.55844 1.87385ZM6.02335 10.7999L5.00621 10.0609L3.98907 10.7999L4.37761 9.60414L3.36043 8.86516H4.61771L5.00621 7.66943L5.39471 8.86516H6.65199L5.6348 9.60414L6.02335 10.7999ZM5.6348 6.10849L6.02335 7.30422L5.00621 6.56524L3.98907 7.30422L4.37761 6.10849L3.36043 5.3695H4.61771L5.00621 4.17377L5.39471 5.3695H6.65199L5.6348 6.10849ZM10.3277 10.7999L9.31055 10.0609L8.29341 10.7999L8.68196 9.60414L7.66477 8.86516H8.92205L9.31055 7.66943L9.69905 8.86516H10.9563L9.93915 9.60414L10.3277 10.7999ZM9.93915 6.10849L10.3277 7.30422L9.31055 6.56524L8.29341 7.30422L8.68196 6.10849L7.66477 5.3695H8.92205L9.31055 4.17377L9.69905 5.3695H10.9563L9.93915 6.10849ZM9.93915 2.61283L10.3277 3.80857L9.31055 3.06958L8.29341 3.80857L8.68196 2.61283L7.66477 1.87385H8.92205L9.31055 0.678112L9.69905 1.87385H10.9563L9.93915 2.61283Z" fill="#0052B4"/>
    </g>
    <defs>
        <clipPath id="clip0_4610_6213">
            <rect width="24" height="24" fill="white"/>
        </clipPath>
    </defs>
</svg>
