<svg width="24" height="24" viewBox="0 0 24 24" fill="none" xmlns="http://www.w3.org/2000/svg">
    <g clip-path="url(#clip0_4610_6242)">
        <path d="M0 12C0 13.4678 0.264047 14.8739 0.746391 16.1739L12 17.2173L23.2536 16.1739C23.736 14.8739 24 13.4678 24 12C24 10.5321 23.736 9.12606 23.2536 7.82608L12 6.78259L0.746391 7.82608C0.264047 9.12606 0 10.5321 0 12H0Z" fill="#FFDA44"/>
        <path d="M23.2535 7.82611C21.558 3.25655 17.1595 0 11.9999 0C6.84037 0 2.44185 3.25655 0.746338 7.82611H23.2535Z" fill="#D80027"/>
        <path d="M0.746338 16.1738C2.44185 20.7434 6.84037 23.9999 11.9999 23.9999C17.1595 23.9999 21.558 20.7434 23.2535 16.1738H0.746338Z" fill="#D80027"/>
    </g>
    <defs>
        <clipPath id="clip0_4610_6242">
            <rect width="24" height="24" fill="white"/>
        </clipPath>
    </defs>
</svg>
