<svg width="24" height="24" viewBox="0 0 24 24" fill="none" xmlns="http://www.w3.org/2000/svg">
    <g clip-path="url(#clip0_4610_6254)">
        <path d="M11.9997 24.0001C18.6271 24.0001 23.9997 18.6275 23.9997 12.0001C23.9997 5.3727 18.6271 0.00012207 11.9997 0.00012207C5.37228 0.00012207 -0.000305176 5.3727 -0.000305176 12.0001C-0.000305176 18.6275 5.37228 24.0001 11.9997 24.0001Z" fill="#F0F0F0"/>
        <path d="M23.9999 12.0001C23.9999 6.84049 20.7434 2.44198 16.1738 0.74646V23.2537C20.7434 21.5582 23.9999 17.1596 23.9999 12.0001Z" fill="#D80027"/>
        <path d="M0 12.0001C0 17.1596 3.25655 21.5582 7.82611 23.2537V0.74646C3.25655 2.44198 0 6.84049 0 12.0001Z" fill="#0052B4"/>
    </g>
    <defs>
        <clipPath id="clip0_4610_6254">
            <rect width="24" height="24" fill="white"/>
        </clipPath>
    </defs>
</svg>