<svg width="44" height="44" viewBox="0 0 44 44" fill="none" xmlns="http://www.w3.org/2000/svg">
    <path d="M31.375 26.4063C31.2893 26.4551 31.1948 26.4866 31.097 26.4989C30.9991 26.5112 30.8998 26.5041 30.8047 26.478C30.7097 26.4518 30.6207 26.4072 30.5428 26.3467C30.465 26.2861 30.3999 26.2108 30.3512 26.125L28.57 23.0125C27.5344 23.7127 26.392 24.2402 25.1875 24.5744L25.7378 27.8763C25.754 27.9735 25.7509 28.0729 25.7287 28.1689C25.7065 28.2649 25.6656 28.3556 25.6083 28.4358C25.551 28.516 25.4784 28.5841 25.3948 28.6363C25.3112 28.6884 25.2181 28.7236 25.1209 28.7397C25.0809 28.7462 25.0405 28.7497 25 28.75C24.8225 28.7498 24.6509 28.6866 24.5157 28.5718C24.3804 28.4569 24.2903 28.2979 24.2612 28.1228L23.7203 24.881C22.5795 25.0397 21.4223 25.0397 20.2815 24.881L19.7406 28.1228C19.7115 28.2982 19.621 28.4575 19.4854 28.5724C19.3497 28.6872 19.1777 28.7502 19 28.75C18.9585 28.7498 18.9171 28.7464 18.8762 28.7397C18.779 28.7236 18.6859 28.6884 18.6023 28.6363C18.5186 28.5841 18.4461 28.516 18.3888 28.4358C18.3315 28.3556 18.2906 28.2649 18.2684 28.1689C18.2462 28.0729 18.2431 27.9735 18.2593 27.8763L18.8125 24.5744C17.6084 24.2391 16.4666 23.7107 15.4318 23.0097L13.6562 26.125C13.5567 26.2983 13.3925 26.425 13.1996 26.4772C13.0068 26.5294 12.8011 26.5029 12.6278 26.4035C12.4545 26.304 12.3278 26.1398 12.2755 25.9469C12.2233 25.754 12.2499 25.5483 12.3493 25.375L14.2243 22.0938C13.5657 21.5248 12.9601 20.8972 12.415 20.2188C12.347 20.1429 12.2952 20.0539 12.2627 19.9573C12.2302 19.8607 12.2178 19.7585 12.2262 19.6569C12.2345 19.5554 12.2635 19.4566 12.3113 19.3666C12.3591 19.2766 12.4247 19.1973 12.5042 19.1335C12.5837 19.0697 12.6753 19.0228 12.7735 18.9956C12.8717 18.9684 12.9745 18.9615 13.0754 18.9753C13.1764 18.9892 13.2735 19.0234 13.3608 19.076C13.448 19.1286 13.5237 19.1985 13.5831 19.2813C15.1393 21.2069 17.8618 23.5 22 23.5C26.1381 23.5 28.8606 21.2041 30.4168 19.2813C30.4755 19.1968 30.551 19.1252 30.6386 19.0712C30.7261 19.0171 30.8238 18.9816 30.9257 18.9669C31.0275 18.9522 31.1313 18.9586 31.2306 18.9858C31.3298 19.0129 31.4224 19.0602 31.5026 19.1247C31.5828 19.1891 31.6489 19.2694 31.6968 19.3605C31.7446 19.4516 31.7732 19.5516 31.7807 19.6542C31.7883 19.7569 31.7746 19.8599 31.7406 19.9571C31.7066 20.0542 31.653 20.1433 31.5831 20.2188C31.0379 20.8972 30.4323 21.5248 29.7737 22.0938L31.6487 25.375C31.699 25.4606 31.7319 25.5552 31.7454 25.6535C31.7588 25.7519 31.7527 25.8519 31.7272 25.9478C31.7017 26.0437 31.6575 26.1337 31.597 26.2123C31.5366 26.291 31.4611 26.357 31.375 26.4063Z" fill="#64748B"/>
</svg>