<svg width="60" height="60" viewBox="0 0 60 60" fill="none" xmlns="http://www.w3.org/2000/svg">
    <path d="M16.25 18.0498C10.3875 19.9748 5.05 22.9498 1.25 26.2498C5.9625 43.4498 15.575 53.4498 29.05 55.0623C30.625 53.5123 31.725 51.8748 32.375 49.9998" stroke="#020617" stroke-width="2" stroke-miterlimit="10"/>
    <path d="M11.3125 37.6871C11.725 38.8871 13.8875 39.1246 15.8875 38.4371C17.8875 37.7496 19.1625 36.3121 19.2125 35.6621" stroke="#020617" stroke-width="2" stroke-miterlimit="10"/>
    <path d="M38.7499 50C51.8999 43.675 59.0249 33.225 57.4999 8.75C52.2999 6.625 45.5499 5.0625 38.7499 5C31.9499 5.0625 25.1999 6.625 19.9999 8.75C18.4749 33.225 25.5999 43.675 38.7499 50Z" stroke="#020617" stroke-width="2" stroke-miterlimit="10"/>
    <path d="M47.4998 33.7499C45.0123 34.6749 41.5123 34.9374 38.7498 34.9999C35.9873 34.9374 32.4873 34.6749 29.9998 33.7499C29.1748 33.4374 33.3998 41.2499 38.7498 41.2499C44.0998 41.2499 48.3248 33.4374 47.4998 33.7499Z" stroke="#020617" stroke-width="2" stroke-miterlimit="10"/>
    <path d="M41.25 25C41.25 23.175 43.125 21.25 46.25 21.25C49.375 21.25 52.5 23.5 52.5 25" stroke="#020617" stroke-width="2" stroke-miterlimit="10"/>
    <path d="M25 25C25 23.5 28.125 21.25 31.25 21.25C34.375 21.25 36.25 23.175 36.25 25" stroke="#020617" stroke-width="2" stroke-miterlimit="10"/>
</svg>