<svg width="132" height="109" viewBox="0 0 132 109" fill="none" xmlns="http://www.w3.org/2000/svg">
    <path d="M66.761 100C94.32 100 116.663 77.6575 116.663 50C116.663 22.3425 94.32 0 66.761 0C39.2019 0 16.8594 22.3425 16.8594 50C16.8594 77.6575 39.2019 100 66.761 100Z" fill="#EAEEF9"/>
    <path d="M122.369 29.4293C124.598 29.4293 126.405 27.6225 126.405 25.3938C126.405 23.1651 124.598 21.3584 122.369 21.3584C120.141 21.3584 118.334 23.1651 118.334 25.3938C118.334 27.6225 120.141 29.4293 122.369 29.4293Z" fill="#EAEEF9"/>
    <path d="M128.275 13.5831C129.797 13.5831 131.031 12.3492 131.031 10.8272C131.031 9.30515 129.797 8.07129 128.275 8.07129C126.753 8.07129 125.52 9.30515 125.52 10.8272C125.52 12.3492 126.753 13.5831 128.275 13.5831Z" fill="#EAEEF9"/>
    <path d="M13.4122 32.2833C14.9342 32.2833 16.1681 31.0494 16.1681 29.5274C16.1681 28.0053 14.9342 26.7715 13.4122 26.7715C11.8901 26.7715 10.6562 28.0053 10.6562 29.5274C10.6562 31.0494 11.8901 32.2833 13.4122 32.2833Z" fill="#EAEEF9"/>
    <path d="M18.5322 92.2245C21.3588 92.2245 23.6503 89.933 23.6503 87.1064C23.6503 84.2797 21.3588 81.9883 18.5322 81.9883C15.7055 81.9883 13.4141 84.2797 13.4141 87.1064C13.4141 89.933 15.7055 92.2245 18.5322 92.2245Z" fill="#EAEEF9"/>
    <g filter="url(#filter0_d_4117_760921)">
        <path d="M113.021 30.0206H27.6863C25.8162 30.0206 24.3398 28.5442 24.3398 26.6741V7.48122C24.3398 5.61114 25.8162 4.13477 27.6863 4.13477H112.923C114.793 4.13477 116.269 5.61114 116.269 7.48122V26.6741C116.367 28.5442 114.793 30.0206 113.021 30.0206Z" fill="white"/>
    </g>
    <path d="M45.0099 17.0284C45.0099 19.1937 44.0256 21.1622 42.5492 22.5402C41.2697 23.7213 39.4981 24.4103 37.628 24.4103C35.7579 24.4103 33.9863 23.7213 32.7067 22.5402C31.1319 21.1622 30.2461 19.1937 30.2461 17.0284C30.2461 12.9929 33.5926 9.64648 37.628 9.64648C41.6634 9.64648 45.0099 12.9929 45.0099 17.0284Z" fill="#DCE1EE"/>
    <path d="M69.2202 14.8626H50.3226C49.8304 14.8626 49.5352 14.4689 49.5352 14.0752V11.6146C49.5352 11.1224 49.9289 10.8271 50.3226 10.8271H69.2202C69.7123 10.8271 70.0076 11.2208 70.0076 11.6146V14.0752C70.0076 14.5673 69.7123 14.8626 69.2202 14.8626Z" fill="#CED6E2"/>
    <path d="M91.6611 23.2288H50.3226C49.8304 23.2288 49.5352 22.8351 49.5352 22.4414V19.9808C49.5352 19.4886 49.9289 19.1934 50.3226 19.1934H91.6611C92.1533 19.1934 92.4485 19.5871 92.4485 19.9808V22.4414C92.4485 22.9335 92.0548 23.2288 91.6611 23.2288Z" fill="#CED6E2"/>
    <g filter="url(#filter1_d_4117_760921)">
        <path d="M113.021 94.587H27.6863C25.8162 94.587 24.3398 93.1106 24.3398 91.2405V72.0476C24.3398 70.1775 25.8162 68.7012 27.6863 68.7012H112.923C114.793 68.7012 116.269 70.1775 116.269 72.0476V91.2405C116.367 93.1106 114.793 94.587 113.021 94.587Z" fill="white"/>
    </g>
    <path d="M45.0099 81.5948C45.0099 83.7601 44.0256 85.7286 42.5492 87.1066C41.2697 88.2877 39.4981 88.9767 37.628 88.9767C35.7579 88.9767 33.9863 88.2877 32.7067 87.1066C31.1319 85.7286 30.2461 83.7601 30.2461 81.5948C30.2461 77.5593 33.5926 74.2129 37.628 74.2129C41.6634 74.2129 45.0099 77.5593 45.0099 81.5948Z" fill="#DCE1EE"/>
    <path d="M69.2202 79.5286H50.3226C49.8304 79.5286 49.5352 79.1349 49.5352 78.7412V76.2806C49.5352 75.7884 49.9289 75.4932 50.3226 75.4932H69.2202C69.7123 75.4932 70.0076 75.8869 70.0076 76.2806V78.7412C70.0076 79.1349 69.7123 79.5286 69.2202 79.5286Z" fill="#CED6E2"/>
    <path d="M91.6611 87.8948H50.3226C49.8304 87.8948 49.5352 87.5011 49.5352 87.1074V84.6468C49.5352 84.1547 49.9289 83.8594 50.3226 83.8594H91.6611C92.1533 83.8594 92.4485 84.2531 92.4485 84.6468V87.1074C92.4485 87.5011 92.0548 87.8948 91.6611 87.8948Z" fill="#CED6E2"/>
    <g filter="url(#filter2_d_4117_760921)">
        <path d="M98.5514 62.3038H13.3152C11.4451 62.3038 9.96875 60.8274 9.96875 58.9573V39.7644C9.96875 37.8943 11.4451 36.418 13.3152 36.418H98.5514C100.422 36.418 101.898 37.8943 101.898 39.7644V58.9573C101.996 60.8274 100.422 62.3038 98.5514 62.3038Z" fill="white"/>
    </g>
    <path d="M54.8491 47.1458H35.9515C35.4593 47.1458 35.1641 46.7521 35.1641 46.3584V43.8978C35.1641 43.4056 35.5578 43.1104 35.9515 43.1104H54.8491C55.3412 43.1104 55.6365 43.5041 55.6365 43.8978V46.3584C55.6365 46.8505 55.3412 47.1458 54.8491 47.1458Z" fill="#CED6E2"/>
    <path d="M77.2901 55.6097H35.9515C35.4593 55.6097 35.1641 55.216 35.1641 54.8222V52.3616C35.1641 51.8695 35.5578 51.5742 35.9515 51.5742H77.1916C77.6838 51.5742 77.979 51.9679 77.979 52.3616V54.8222C78.0774 55.216 77.6838 55.6097 77.2901 55.6097Z" fill="#CED6E2"/>
    <path d="M30.7353 49.3116C30.7353 51.3785 29.8494 53.2486 28.4715 54.6265C28.373 54.725 28.373 54.725 28.2746 54.8234C26.9951 56.0045 25.2234 56.6935 23.3534 56.6935C21.4833 56.6935 19.8101 56.0045 18.5305 54.9218C18.5305 54.9218 18.5305 54.9218 18.4321 54.9218C16.8573 53.5439 15.873 51.5754 15.873 49.3116C15.873 45.2761 19.2195 41.9297 23.2549 41.9297C27.3888 41.9297 30.7353 45.2761 30.7353 49.3116Z" fill="#DCE1EE"/>
    <path d="M21.2871 50.7881C21.3855 50.8865 21.484 50.9849 21.5824 51.0834C21.484 50.9849 21.3855 50.8865 21.2871 50.7881Z" fill="#3973F4"/>
    <defs>
        <filter id="filter0_d_4117_760921" x="15.3398" y="0.134766" width="109.934" height="43.8857" filterUnits="userSpaceOnUse" color-interpolation-filters="sRGB">
            <feFlood flood-opacity="0" result="BackgroundImageFix"/>
            <feColorMatrix in="SourceAlpha" type="matrix" values="0 0 0 0 0 0 0 0 0 0 0 0 0 0 0 0 0 0 127 0" result="hardAlpha"/>
            <feOffset dy="5"/>
            <feGaussianBlur stdDeviation="4.5"/>
            <feColorMatrix type="matrix" values="0 0 0 0 0.397708 0 0 0 0 0.47749 0 0 0 0 0.575 0 0 0 0.17 0"/>
            <feBlend mode="normal" in2="BackgroundImageFix" result="effect1_dropShadow_4117_760921"/>
            <feBlend mode="normal" in="SourceGraphic" in2="effect1_dropShadow_4117_760921" result="shape"/>
        </filter>
        <filter id="filter1_d_4117_760921" x="15.3398" y="64.7012" width="109.934" height="43.8857" filterUnits="userSpaceOnUse" color-interpolation-filters="sRGB">
            <feFlood flood-opacity="0" result="BackgroundImageFix"/>
            <feColorMatrix in="SourceAlpha" type="matrix" values="0 0 0 0 0 0 0 0 0 0 0 0 0 0 0 0 0 0 127 0" result="hardAlpha"/>
            <feOffset dy="5"/>
            <feGaussianBlur stdDeviation="4.5"/>
            <feColorMatrix type="matrix" values="0 0 0 0 0.397708 0 0 0 0 0.47749 0 0 0 0 0.575 0 0 0 0.17 0"/>
            <feBlend mode="normal" in2="BackgroundImageFix" result="effect1_dropShadow_4117_760921"/>
            <feBlend mode="normal" in="SourceGraphic" in2="effect1_dropShadow_4117_760921" result="shape"/>
        </filter>
        <filter id="filter2_d_4117_760921" x="0.96875" y="32.418" width="109.934" height="43.8857" filterUnits="userSpaceOnUse" color-interpolation-filters="sRGB">
            <feFlood flood-opacity="0" result="BackgroundImageFix"/>
            <feColorMatrix in="SourceAlpha" type="matrix" values="0 0 0 0 0 0 0 0 0 0 0 0 0 0 0 0 0 0 127 0" result="hardAlpha"/>
            <feOffset dy="5"/>
            <feGaussianBlur stdDeviation="4.5"/>
            <feColorMatrix type="matrix" values="0 0 0 0 0.397708 0 0 0 0 0.47749 0 0 0 0 0.575 0 0 0 0.17 0"/>
            <feBlend mode="normal" in2="BackgroundImageFix" result="effect1_dropShadow_4117_760921"/>
            <feBlend mode="normal" in="SourceGraphic" in2="effect1_dropShadow_4117_760921" result="shape"/>
        </filter>
    </defs>
</svg>
